{
    "asset" : {
        "generator" : "Khronos glTF Blender I/O v1.4.40",
        "version" : "2.0"
    },
    "scene" : 0,
    "scenes" : [
        {
            "name" : "Scene",
            "nodes" : [
                0,
                1,
                2,
                3,
                4,
                5,
                6
            ]
        }
    ],
    "nodes" : [
        {
            "mesh" : 0,
            "name" : "legs",
            "rotation" : [
                0,
                1,
                0,
                -1.6292068494294654e-07
            ],
            "scale" : [
                0.09600086510181427,
                0.09600086510181427,
                0.09600086510181427
            ]
        },
        {
            "mesh" : 1,
            "name" : "cushions",
            "rotation" : [
                0,
                1,
                0,
                -1.6292068494294654e-07
            ],
            "scale" : [
                0.09600086510181427,
                0.09600086510181427,
                0.09600086510181427
            ]
        },
        {
            "mesh" : 2,
            "name" : "back",
            "rotation" : [
                0,
                1,
                0,
                -1.6292068494294654e-07
            ],
            "scale" : [
                0.09600086510181427,
                0.09600086510181427,
                0.09600086510181427
            ]
        },
        {
            "mesh" : 3,
            "name" : "supports",
            "rotation" : [
                0,
                1,
                0,
                -1.6292068494294654e-07
            ],
            "scale" : [
                0.09600086510181427,
                0.09600086510181427,
                0.09600086510181427
            ]
        },
        {
            "mesh" : 4,
            "name" : "base",
            "rotation" : [
                0,
                1,
                0,
                -1.6292068494294654e-07
            ],
            "scale" : [
                0.09600086510181427,
                0.09600086510181427,
                0.09600086510181427
            ]
        },
        {
            "name" : "Light",
            "rotation" : [
                0.16907575726509094,
                0.7558803558349609,
                -0.27217137813568115,
                0.570947527885437
            ],
            "translation" : [
                4.076245307922363,
                5.903861999511719,
                -1.0054539442062378
            ]
        },
        {
            "name" : "Camera",
            "rotation" : [
                0.483536034822464,
                0.33687159419059753,
                -0.20870360732078552,
                0.7804827094078064
            ],
            "translation" : [
                7.358891487121582,
                4.958309173583984,
                6.925790786743164
            ]
        }
    ],
    "materials" : [
        {
            "doubleSided" : true,
            "name" : "wire_002049060",
            "pbrMetallicRoughness" : {
                "baseColorFactor" : [
                    0.800000011920929,
                    0.800000011920929,
                    0.800000011920929,
                    1
                ],
                "metallicFactor" : 0,
                "roughnessFactor" : 0.5
            }
        },
        {
            "doubleSided" : true,
            "name" : "wire_196010216",
            "pbrMetallicRoughness" : {
                "baseColorFactor" : [
                    0.800000011920929,
                    0.800000011920929,
                    0.800000011920929,
                    1
                ],
                "metallicFactor" : 0,
                "roughnessFactor" : 0.5
            }
        }
    ],
    "meshes" : [
        {
            "name" : "SOTO",
            "primitives" : [
                {
                    "attributes" : {
                        "POSITION" : 0,
                        "NORMAL" : 1,
                        "TEXCOORD_0" : 2
                    },
                    "indices" : 3,
                    "material" : 0
                }
            ]
        },
        {
            "name" : "SOTO.001",
            "primitives" : [
                {
                    "attributes" : {
                        "POSITION" : 4,
                        "NORMAL" : 5,
                        "TEXCOORD_0" : 6
                    },
                    "indices" : 7,
                    "material" : 1
                }
            ]
        },
        {
            "name" : "SOTO.003",
            "primitives" : [
                {
                    "attributes" : {
                        "POSITION" : 8,
                        "NORMAL" : 9,
                        "TEXCOORD_0" : 10
                    },
                    "indices" : 11,
                    "material" : 0
                }
            ]
        },
        {
            "name" : "SOTO.004",
            "primitives" : [
                {
                    "attributes" : {
                        "POSITION" : 12,
                        "NORMAL" : 13,
                        "TEXCOORD_0" : 14
                    },
                    "indices" : 15
                }
            ]
        },
        {
            "name" : "SOTO.005",
            "primitives" : [
                {
                    "attributes" : {
                        "POSITION" : 16,
                        "NORMAL" : 17,
                        "TEXCOORD_0" : 18
                    },
                    "indices" : 19,
                    "material" : 0
                }
            ]
        }
    ],
    "accessors" : [
        {
            "bufferView" : 0,
            "componentType" : 5126,
            "count" : 29785,
            "max" : [
                4.691948413848877,
                9.50275993347168,
                6.1210479736328125
            ],
            "min" : [
                -4.675808429718018,
                0.0003026436606887728,
                -5.430161476135254
            ],
            "type" : "VEC3"
        },
        {
            "bufferView" : 1,
            "componentType" : 5126,
            "count" : 29785,
            "type" : "VEC3"
        },
        {
            "bufferView" : 2,
            "componentType" : 5126,
            "count" : 29785,
            "type" : "VEC2"
        },
        {
            "bufferView" : 3,
            "componentType" : 5123,
            "count" : 88224,
            "type" : "SCALAR"
        },
        {
            "bufferView" : 4,
            "componentType" : 5126,
            "count" : 18113,
            "max" : [
                3.7407777309417725,
                9.89449405670166,
                5.223287582397461
            ],
            "min" : [
                -3.6396048069000244,
                3.1373417377471924,
                -4.395101547241211
            ],
            "type" : "VEC3"
        },
        {
            "bufferView" : 5,
            "componentType" : 5126,
            "count" : 18113,
            "type" : "VEC3"
        },
        {
            "bufferView" : 6,
            "componentType" : 5126,
            "count" : 18113,
            "type" : "VEC2"
        },
        {
            "bufferView" : 7,
            "componentType" : 5123,
            "count" : 86940,
            "type" : "SCALAR"
        },
        {
            "bufferView" : 8,
            "componentType" : 5126,
            "count" : 1054,
            "max" : [
                2.8836965560913086,
                8.649024963378906,
                -2.161191701889038
            ],
            "min" : [
                -2.940709114074707,
                3.1529624462127686,
                -4.484509468078613
            ],
            "type" : "VEC3"
        },
        {
            "bufferView" : 9,
            "componentType" : 5126,
            "count" : 1054,
            "type" : "VEC3"
        },
        {
            "bufferView" : 10,
            "componentType" : 5126,
            "count" : 1054,
            "type" : "VEC2"
        },
        {
            "bufferView" : 11,
            "componentType" : 5123,
            "count" : 1344,
            "type" : "SCALAR"
        },
        {
            "bufferView" : 12,
            "componentType" : 5126,
            "count" : 2971,
            "max" : [
                3.7118618488311768,
                9.32486629486084,
                4.733932018280029
            ],
            "min" : [
                -3.695693016052246,
                2.38252592086792,
                -4.827481746673584
            ],
            "type" : "VEC3"
        },
        {
            "bufferView" : 13,
            "componentType" : 5126,
            "count" : 2971,
            "type" : "VEC3"
        },
        {
            "bufferView" : 14,
            "componentType" : 5126,
            "count" : 2971,
            "type" : "VEC2"
        },
        {
            "bufferView" : 15,
            "componentType" : 5123,
            "count" : 13152,
            "type" : "SCALAR"
        },
        {
            "bufferView" : 16,
            "componentType" : 5126,
            "count" : 234,
            "max" : [
                3.654675006866455,
                3.7842602729797363,
                5.1523756980896
            ],
            "min" : [
                -3.6451148986816406,
                2.898575782775879,
                -2.167901039123535
            ],
            "type" : "VEC3"
        },
        {
            "bufferView" : 17,
            "componentType" : 5126,
            "count" : 234,
            "type" : "VEC3"
        },
        {
            "bufferView" : 18,
            "componentType" : 5126,
            "count" : 234,
            "type" : "VEC2"
        },
        {
            "bufferView" : 19,
            "componentType" : 5123,
            "count" : 996,
            "type" : "SCALAR"
        }
    ],
    "bufferViews" : [
        {
            "buffer" : 0,
            "byteLength" : 357420,
            "byteOffset" : 0
        },
        {
            "buffer" : 0,
            "byteLength" : 357420,
            "byteOffset" : 357420
        },
        {
            "buffer" : 0,
            "byteLength" : 238280,
            "byteOffset" : 714840
        },
        {
            "buffer" : 0,
            "byteLength" : 176448,
            "byteOffset" : 953120
        },
        {
            "buffer" : 0,
            "byteLength" : 217356,
            "byteOffset" : 1129568
        },
        {
            "buffer" : 0,
            "byteLength" : 217356,
            "byteOffset" : 1346924
        },
        {
            "buffer" : 0,
            "byteLength" : 144904,
            "byteOffset" : 1564280
        },
        {
            "buffer" : 0,
            "byteLength" : 173880,
            "byteOffset" : 1709184
        },
        {
            "buffer" : 0,
            "byteLength" : 12648,
            "byteOffset" : 1883064
        },
        {
            "buffer" : 0,
            "byteLength" : 12648,
            "byteOffset" : 1895712
        },
        {
            "buffer" : 0,
            "byteLength" : 8432,
            "byteOffset" : 1908360
        },
        {
            "buffer" : 0,
            "byteLength" : 2688,
            "byteOffset" : 1916792
        },
        {
            "buffer" : 0,
            "byteLength" : 35652,
            "byteOffset" : 1919480
        },
        {
            "buffer" : 0,
            "byteLength" : 35652,
            "byteOffset" : 1955132
        },
        {
            "buffer" : 0,
            "byteLength" : 23768,
            "byteOffset" : 1990784
        },
        {
            "buffer" : 0,
            "byteLength" : 26304,
            "byteOffset" : 2014552
        },
        {
            "buffer" : 0,
            "byteLength" : 2808,
            "byteOffset" : 2040856
        },
        {
            "buffer" : 0,
            "byteLength" : 2808,
            "byteOffset" : 2043664
        },
        {
            "buffer" : 0,
            "byteLength" : 1872,
            "byteOffset" : 2046472
        },
        {
            "buffer" : 0,
            "byteLength" : 1992,
            "byteOffset" : 2048344
        }
    ],
    "buffers" : [
        {
            "byteLength" : 2050336,
            "uri" : "data:application/octet-stream;base64,"
        }
    ]
}
